<svg id="Layer_1" data-name="Layer 1" xmlns="http://www.w3.org/2000/svg" viewBox="0 0 891.98 391.93"><defs><style>.cls-1{fill:#e37b15;}.cls-2{fill:#fff;}</style></defs><title>Artboard 1</title><path class="cls-1" d="M102.36,39.51h24.35v135.3c0,53.7-24.63,70.2-57.1,70.2-9,0-19.87-2.09-26-4.8l3.64-21.3a54.63,54.63,0,0,0,20.43,3.9c21.83,0,34.71-10.5,34.71-50.1Z"/><path class="cls-1" d="M191.64,39.51v119.7c0,45.3,18.75,64.5,44,64.5,28,0,45.9-19.8,45.9-64.5V39.51h24.63v117.9c0,62.1-30.51,87.6-71.37,87.6-38.63,0-67.74-23.7-67.74-86.4V39.51Z"/><path class="cls-1" d="M389.8,241.71,328.23,39.51h26.31l29.38,99.6c8.12,27.3,15.12,51.9,20.16,75.6h.56c5.32-23.4,13.15-48.9,21.55-75.3l31.91-99.9h26l-67.46,202.2Z"/><path class="cls-1" d="M528.91,39.51v202.2H504.56V39.51Z"/><path class="cls-1" d="M612.88,241.71,551.3,39.51h26.31L607,139.11c8.12,27.3,15.11,51.9,20.15,75.6h.56c5.32-23.4,13.16-48.9,21.55-75.3l31.91-99.9h26l-67.45,202.2Z"/><path class="cls-1" d="M742.19,178.11l-19.59,63.6H697.4l64.1-202.2h29.39l64.38,202.2h-26l-20.16-63.6Zm61.86-20.4-18.48-58.2c-4.2-13.2-7-25.2-9.79-36.9h-.56c-2.8,12-5.88,24.3-9.52,36.6l-18.47,58.5Z"/><path class="cls-2" d="M504.56,344V241.71H546q14.76,0,22.93,7t8.17,20.92a28.13,28.13,0,0,1-2.44,12,24.42,24.42,0,0,1-6.74,8.74,29.28,29.28,0,0,1-10.24,5.3,45.2,45.2,0,0,1-13.12,1.79H507.42V344ZM546,294.6A36.47,36.47,0,0,0,557.15,293a25.79,25.79,0,0,0,9-4.87,22.79,22.79,0,0,0,5.95-7.81,24.82,24.82,0,0,0,2.15-10.61q0-12.18-7-18.63T546,244.58H507.42v50Z"/><path class="cls-2" d="M589.83,241.71v46.87h.29a25.85,25.85,0,0,1,3.22-7.88,25,25,0,0,1,5.59-6.31,25.32,25.32,0,0,1,7.81-4.23,33.22,33.22,0,0,1,20.42.22,23.06,23.06,0,0,1,8.32,5.09,22.8,22.8,0,0,1,5.44,8.31,31.07,31.07,0,0,1,1.94,11.39V344H640V295.6a28.76,28.76,0,0,0-1.86-11,20.47,20.47,0,0,0-5.09-7.45,20.13,20.13,0,0,0-7.45-4.3,29,29,0,0,0-9-1.37A25.64,25.64,0,0,0,605,274a24.73,24.73,0,0,0-8.38,6.74,29.47,29.47,0,0,0-5.09,9.82,39.57,39.57,0,0,0-1.72,11.75V344H587V241.71Z"/><path class="cls-2" d="M710.79,270.38l-34,88.57a17,17,0,0,1-3.44,5.8,13.23,13.23,0,0,1-4.44,3.08,17.3,17.3,0,0,1-5.38,1.22c-1.95.14-4,.22-6.23.22V366.4q3.72,0,6.38-.22a12.83,12.83,0,0,0,4.58-1.14,9.67,9.67,0,0,0,3.44-2.87,20.81,20.81,0,0,0,2.8-5.23l5.3-13.61-30.67-72.95h3l29.24,69.79,26.37-69.79Z"/><path class="cls-2" d="M763.24,282.7a16.63,16.63,0,0,0-4.87-6.37,20.28,20.28,0,0,0-7.53-3.66,38.27,38.27,0,0,0-9.67-1.15q-7.74,0-12.18,2.08a18.45,18.45,0,0,0-6.59,4.73,12.77,12.77,0,0,0-2.73,5.23,19.88,19.88,0,0,0-.57,3.59q0,5.44,2.22,8.38a14.16,14.16,0,0,0,5.95,4.51,63.35,63.35,0,0,0,8.38,2.73q4.51,1.14,10.54,2.72c2.86.77,5.7,1.55,8.52,2.36a29.34,29.34,0,0,1,7.6,3.37,17.47,17.47,0,0,1,5.44,5.45,15.87,15.87,0,0,1,2.08,8.6,17.8,17.8,0,0,1-2.36,9.46,19.42,19.42,0,0,1-6.16,6.3,26.31,26.31,0,0,1-8.6,3.51,43.4,43.4,0,0,1-9.53,1.08q-14.77,0-22.29-6.45t-7.52-20.35h2.86q0,12.46,6.95,18.27t20,5.81a37.75,37.75,0,0,0,8.24-.94,25.06,25.06,0,0,0,7.66-3,17.86,17.86,0,0,0,5.67-5.37,14,14,0,0,0,2.22-8,13,13,0,0,0-2.22-7.88,17.7,17.7,0,0,0-5.74-4.94,33.48,33.48,0,0,0-8.09-3.08c-3.06-.77-6.17-1.53-9.32-2.3-3.54-.86-6.64-1.67-9.32-2.43a53.2,53.2,0,0,1-7.16-2.58,14.19,14.19,0,0,1-6.74-5.59q-2.14-3.58-2.15-9.6a17.31,17.31,0,0,1,1.29-6.31,16.08,16.08,0,0,1,4.3-6,23.26,23.26,0,0,1,7.74-4.44,34.08,34.08,0,0,1,11.61-1.72q12.33,0,19.49,5.59t7.17,17.91H765A23.21,23.21,0,0,0,763.24,282.7Z"/><path class="cls-2" d="M783.3,256.19V241.71h2.87v14.48Zm0,87.85V270.38h2.87V344Z"/><path class="cls-2" d="M800.21,292.66a37.12,37.12,0,0,1,6.38-12.25A32.31,32.31,0,0,1,817,271.88a30.49,30.49,0,0,1,14.33-3.22,30.17,30.17,0,0,1,14.19,3.22,32.31,32.31,0,0,1,10.39,8.53,36.94,36.94,0,0,1,6.38,12.25,50.31,50.31,0,0,1,0,29.1A36.84,36.84,0,0,1,855.89,334a30.33,30.33,0,0,1-24.72,11.61A30.76,30.76,0,0,1,817,342.47,31.35,31.35,0,0,1,806.59,334a37,37,0,0,1-6.38-12.25,50.31,50.31,0,0,1,0-29.1Zm2.66,28a34.3,34.3,0,0,0,5.8,11.4A28.82,28.82,0,0,0,818.2,340a28,28,0,0,0,13.11,2.94,27.7,27.7,0,0,0,13-2.94,28.82,28.82,0,0,0,9.53-7.88,34.32,34.32,0,0,0,5.81-11.4,46.62,46.62,0,0,0,1.93-13.47,46.12,46.12,0,0,0-1.93-13.33,34.18,34.18,0,0,0-5.81-11.39,29.54,29.54,0,0,0-9.53-8,27.25,27.25,0,0,0-13-3,27.57,27.57,0,0,0-13.11,3,29.54,29.54,0,0,0-9.53,8,34.16,34.16,0,0,0-5.8,11.39,46.13,46.13,0,0,0-1.94,13.33A46.63,46.63,0,0,0,802.87,320.68Z"/></svg>